<?xml version="1.0" encoding="utf-8"?>
<!-- Generator: Adobe Illustrator 24.2.1, SVG Export Plug-In . SVG Version: 6.00 Build 0)  -->
<svg version="1.1" id="Lager_1" xmlns="http://www.w3.org/2000/svg" xmlns:xlink="http://www.w3.org/1999/xlink" x="0px" y="0px"
	 viewBox="0 0 290 290" style="enable-background:new 0 0 290 290;" xml:space="preserve">
<style type="text/css">
	.st0{fill:#0F355B;}
	.st1{fill:#F2F4F4;}
	.st2{fill:#BDE4F9;}
	.st3{fill:url(#SVGID_1_);}
	.st4{fill:url(#SVGID_2_);}
	.st5{fill:#408EBF;}
	.st6{fill:#00E1FF;}
</style>
<g>

	<g>
		<g>
			<polygon class="st0" points="232.37,209.7 129.55,267.93 129.55,267.82 129.55,267.82 129.55,267.84 129.54,267.83 
				129.52,267.84 129.52,267.82 26.8,209.64 25.91,85.9 129.44,30.9 129.5,47.7 129.52,47.69 129.52,47.7 129.54,47.7 129.55,47.7 
				129.55,47.69 129.57,47.7 129.64,30.78 233.26,85.84 			"/>
		</g>
		<g>
			<polygon class="st1" points="130.17,48.43 51.84,92.79 130.17,135.58 169.22,114.07 124.98,91.21 166.25,68.05 			"/>
		</g>
		<g>
			<polygon class="st2" points="129.56,152.42 43.84,105.78 44.46,199.17 85.19,222.31 85.19,178.5 129.56,203.51 			"/>
		</g>
		<g>
			<polygon class="st1" points="129.52,152.42 215.23,105.78 214.62,199.17 173.08,222.31 173.08,178.5 129.52,203.51 			"/>
		</g>
		<g>
			<linearGradient id="SVGID_1_" gradientUnits="userSpaceOnUse" x1="38.6183" y1="204.5926" x2="165.6795" y2="107.6248">
				<stop  offset="0" style="stop-color:#FFFFFF"/>
				<stop  offset="0.9994" style="stop-color:#DADADA"/>
			</linearGradient>
			<polygon class="st3" points="129.55,267.82 129.55,267.84 129.54,267.83 129.52,267.84 129.52,267.82 26.8,209.64 25.91,85.9 
				129.44,30.9 129.5,47.7 129.53,47.69 129.55,47.7 129.55,43.17 129.42,9.96 7.59,74.69 8.64,220.3 129.55,288.78 129.55,267.82 
							"/>
		</g>
		<g>
			<linearGradient id="SVGID_2_" gradientUnits="userSpaceOnUse" x1="260.8477" y1="201.4701" x2="133.4428" y2="150.8972">
				<stop  offset="0" style="stop-color:#FFFFFF"/>
				<stop  offset="0.9994" style="stop-color:#DADADA"/>
			</linearGradient>
			<polygon class="st4" points="129.66,9.96 129.52,43.17 129.52,47.7 129.55,47.69 129.57,47.7 129.64,30.78 233.26,85.84 
				232.37,209.7 129.55,267.93 129.55,267.95 129.54,267.94 129.52,267.95 129.52,267.93 129.52,267.93 129.52,288.78 250.43,220.3 
				251.48,74.69 			"/>
		</g>
		<g>
			<polygon class="st5" points="129.52,262.73 229.22,208.48 230.37,89.25 129.55,32.6 129.52,32.61 129.52,27.41 129.67,27.32 
				234.98,86.67 233.78,211.22 129.52,267.95 			"/>
		</g>
		<g>
			<polygon class="st6" points="129.05,262.62 29.48,208.44 28.33,89.36 129.02,32.79 129.05,32.81 129.05,27.61 128.9,27.52 
				23.73,86.79 24.93,211.18 129.05,267.84 			"/>
		</g>
	</g>
</g>
</svg>
